<?xml version="1.0" encoding="utf-8"?>
<!-- Generator: Adobe Illustrator 22.0.0, SVG Export Plug-In . SVG Version: 6.00 Build 0)  -->
<svg version="1.1" id="Layer_1" xmlns="http://www.w3.org/2000/svg" xmlns:xlink="http://www.w3.org/1999/xlink" x="0px" y="0px"
	 viewBox="0 0 1920 8000" style="enable-background:new 0 0 1920 8000;" xml:space="preserve">
<style type="text/css">
	.st0{fill:url(#SVGID_1_);}
	.st1{fill:#031603;}
	.st2{fill:#010B01;}
	.st3{fill:#032D03;}
</style>
<linearGradient id="SVGID_1_" gradientUnits="userSpaceOnUse" x1="1920" y1="4000" x2="2.728484e-12" y2="4000">
	<stop  offset="0" style="stop-color:#032D03"/>
	<stop  offset="1" style="stop-color:#001714"/>
</linearGradient>
<rect x="0" class="st0" width="1920" height="8000"/>
<path class="st1" d="M296.5,3712.5c10.4-14.9,24.1-33,41.4-52.4c22.1-24.7,50.1-51.6,85.1-77.1c39.6-28.9,99.3-72.5,190-87
	c101.1-16.2,179.1,13.6,198.5,21.5c25.8,10.5,78.2,33,122,86c21.6,26.1,58,70.2,47,111c-13.9,51.6-86.5,34.7-129,89
	c-54.6,69.8,22.5,152.1,2,340c-5.3,48.1-11.7,101.8-44,162c-15.4,28.7-68.3,117.7-171,161c-130,54.8-280.4,11.3-361-57
	C128.9,4283.5,110.7,3982.5,296.5,3712.5z"/>
<circle class="st2" cx="486.5" cy="1990.5" r="68"/>
<circle class="st3" cx="468.5" cy="2135.5" r="50"/>
<circle class="st1" cx="1246" cy="3669" r="30.5"/>
<circle class="st3" cx="1538" cy="3742" r="18.5"/>
<circle class="st1" cx="1566" cy="3967" r="37.5"/>
<circle class="st3" cx="1774" cy="3900" r="34.5"/>
<circle class="st1" cx="1751.5" cy="4040.5" r="36"/>
<circle class="st1" cx="1255.5" cy="4164.5" r="70"/>
<circle class="st2" cx="1346.5" cy="4304.5" r="36"/>
<circle class="st2" cx="1131.5" cy="4212.5" r="32"/>
<circle class="st3" cx="1037" cy="4173" r="39.5"/>
<circle class="st1" cx="1095" cy="4363" r="58.5"/>
<circle class="st2" cx="1350" cy="4476" r="33.5"/>
<circle class="st3" cx="1665.5" cy="4242.5" r="62"/>
<circle class="st1" cx="428.5" cy="2063.5" r="58.5"/>
<circle class="st2" cx="579.5" cy="2865.5" r="68"/>
<circle class="st3" cx="561.5" cy="3010.5" r="50"/>
<circle class="st1" cx="432" cy="2800" r="30.5"/>
<circle class="st3" cx="724" cy="2873" r="18.5"/>
<circle class="st1" cx="521.5" cy="2938.5" r="58.5"/>
<circle class="st2" cx="1216" cy="2234" r="68"/>
<circle class="st3" cx="966.5" cy="3578.5" r="50"/>
<circle class="st1" cx="837" cy="3368" r="30.5"/>
<circle class="st3" cx="1471" cy="2902" r="18.5"/>
<circle class="st1" cx="1037.5" cy="2564.5" r="58.5"/>
<circle class="st2" cx="1326.5" cy="2894.5" r="68"/>
<circle class="st3" cx="966.5" cy="3578.5" r="50"/>
<circle class="st1" cx="837" cy="3368" r="30.5"/>
<circle class="st3" cx="1471" cy="2902" r="18.5"/>
<circle class="st1" cx="1268.5" cy="2967.5" r="58.5"/>
<circle class="st1" cx="734.5" cy="1954.5" r="37.5"/>
<circle class="st3" cx="942.5" cy="1887.5" r="34.5"/>
<circle class="st1" cx="920" cy="2028" r="36"/>
<circle class="st1" cx="874" cy="3479" r="37.5"/>
<circle class="st3" cx="1082" cy="3412" r="34.5"/>
<circle class="st1" cx="1059.5" cy="3552.5" r="36"/>
<circle class="st1" cx="1417.5" cy="1884.5" r="37.5"/>
<circle class="st3" cx="1625.5" cy="1817.5" r="34.5"/>
<circle class="st1" cx="1603" cy="1958" r="36"/>
<circle class="st1" cx="246.5" cy="2427.5" r="37.5"/>
<circle class="st3" cx="1082" cy="2836" r="34.5"/>
<circle class="st1" cx="1059.5" cy="2976.5" r="36"/>
<path class="st1" d="M173.9,1173.3c7.5-10.8,17.4-23.8,29.9-37.8c15.9-17.8,36.2-37.2,61.4-55.6c28.5-20.8,71.7-52.3,137.1-62.8
	c72.9-11.7,129.3,9.8,143.2,15.5c18.6,7.6,56.5,23.8,88,62.1c15.6,18.9,41.9,50.6,33.9,80.1c-10,37.2-62.4,25-93.1,64.2
	c-39.4,50.3,16.3,109.8,1.4,245.4c-3.8,34.7-8.4,73.5-31.8,116.9c-11.1,20.7-49.3,84.9-123.4,116.2c-93.8,39.6-202.3,8.2-260.5-41.1
	C53,1585.4,39.9,1368.1,173.9,1173.3z"/>
<path class="st1" d="M1867.3,487.3c5,17.5,10.3,39.5,14.4,65.2c5.2,32.7,8.2,71.4,5.9,114.6c-2.7,48.9-6.7,122.8-52.8,202.2
	c-51.4,88.5-123.9,130.1-142.2,140.1c-24.5,13.3-75.1,39.7-143.8,40.1c-33.9,0.2-91,0.5-115.7-33.8c-31.2-43.4,27.9-88.9,12.7-156.2
	c-19.5-86.4-132.1-78.8-264.6-213.6c-33.9-34.5-71.5-73.4-97.6-136.6c-12.5-30.1-47.9-127.4-16.5-234.3
	c39.8-135.3,168.6-224.3,272.5-243.5C1531.1-3.8,1775.7,172.6,1867.3,487.3z"/>
<circle class="st2" cx="1315" cy="1336" r="68"/>
<circle class="st1" cx="1136.5" cy="1666.5" r="58.5"/>
<circle class="st3" cx="1041.5" cy="989.5" r="34.5"/>
<circle class="st1" cx="1019" cy="1130" r="36"/>
<circle class="st1" cx="1516.5" cy="986.5" r="37.5"/>
<circle class="st3" cx="419" cy="905" r="50"/>
<circle class="st3" cx="419" cy="905" r="50"/>
<circle class="st1" cx="326.5" cy="805.5" r="37.5"/>
<circle class="st3" cx="534.5" cy="738.5" r="34.5"/>
<circle class="st1" cx="512" cy="879" r="36"/>
<circle class="st3" cx="279" cy="354" r="50"/>
<circle class="st3" cx="279" cy="354" r="50"/>
<circle class="st1" cx="186.5" cy="254.5" r="37.5"/>
<circle class="st3" cx="394.5" cy="187.5" r="34.5"/>
<circle class="st1" cx="372" cy="328" r="36"/>
<circle class="st3" cx="762" cy="1394" r="50"/>
<circle class="st3" cx="762" cy="1394" r="50"/>
<circle class="st1" cx="669.5" cy="1294.5" r="37.5"/>
<circle class="st3" cx="877.5" cy="1227.5" r="34.5"/>
<circle class="st1" cx="855" cy="1368" r="36"/>
<circle class="st3" cx="1544" cy="2567" r="50"/>
<circle class="st3" cx="1544" cy="2567" r="50"/>
<circle class="st1" cx="1451.5" cy="2467.5" r="37.5"/>
<circle class="st3" cx="1659.5" cy="2400.5" r="34.5"/>
<circle class="st1" cx="1637" cy="2541" r="36"/>
<circle class="st3" cx="1547" cy="3392" r="50"/>
<circle class="st3" cx="1547" cy="3392" r="50"/>
<circle class="st1" cx="1454.5" cy="3292.5" r="37.5"/>
<circle class="st3" cx="1662.5" cy="3225.5" r="34.5"/>
<circle class="st1" cx="1640" cy="3366" r="36"/>
<circle class="st3" cx="339" cy="3418" r="50"/>
<circle class="st3" cx="339" cy="3418" r="50"/>
<circle class="st1" cx="246.5" cy="3318.5" r="37.5"/>
<circle class="st3" cx="454.5" cy="3251.5" r="34.5"/>
<circle class="st1" cx="432" cy="3392" r="36"/>
<path class="st1" d="M1408.1,5735.2c18.1-1.6,40.7-2.6,66.8-1.7c33.1,1.2,71.7,5.5,113.7,16.1c47.5,11.9,119.2,30,188.4,90.4
	c77.1,67.3,104.1,146.4,110.4,166.3c8.4,26.6,24.6,81.3,11.9,148.8c-6.3,33.3-16.9,89.5-55.3,107.1c-48.6,22.3-82-44.3-150.9-42.2
	c-88.6,2.6-102.5,114.6-260.1,219c-40.4,26.7-85.7,56.2-152.7,69.8c-31.9,6.5-134.2,22.7-233.1-28.5
	c-125.3-64.9-188-208.3-187.1-314C862,5971.5,1081.8,5765,1408.1,5735.2z"/>
<circle class="st1" cx="614" cy="4824" r="70"/>
<circle class="st2" cx="705" cy="4964" r="36"/>
<circle class="st2" cx="490" cy="4872" r="32"/>
<circle class="st3" cx="395.5" cy="4832.5" r="39.5"/>
<circle class="st1" cx="453.5" cy="5022.5" r="58.5"/>
<circle class="st2" cx="708.5" cy="5135.5" r="33.5"/>
<circle class="st2" cx="1622.5" cy="4915.5" r="68"/>
<circle class="st3" cx="1604.5" cy="5060.5" r="50"/>
<circle class="st1" cx="1475" cy="4850" r="30.5"/>
<circle class="st1" cx="1564.5" cy="4988.5" r="58.5"/>
<circle class="st3" cx="1382" cy="5468" r="50"/>
<circle class="st3" cx="1382" cy="5468" r="50"/>
<circle class="st1" cx="1289.5" cy="5368.5" r="37.5"/>
<circle class="st3" cx="1497.5" cy="5301.5" r="34.5"/>
<circle class="st1" cx="1475" cy="5442" r="36"/>
<circle class="st1" cx="378.5" cy="5332.5" r="30.5"/>
<circle class="st3" cx="670.5" cy="5405.5" r="18.5"/>
<circle class="st1" cx="698.5" cy="5630.5" r="37.5"/>
<circle class="st1" cx="884" cy="5704" r="36"/>
<circle class="st1" cx="388" cy="5828" r="70"/>
<circle class="st2" cx="479" cy="5968" r="36"/>
<circle class="st2" cx="264" cy="5876" r="32"/>
<circle class="st1" cx="227.5" cy="6026.5" r="58.5"/>
<circle class="st3" cx="798" cy="5906" r="62"/>
<circle class="st2" cx="507.5" cy="6284.5" r="68"/>
<circle class="st3" cx="489.5" cy="6429.5" r="50"/>
<circle class="st1" cx="360" cy="6219" r="30.5"/>
<circle class="st1" cx="449.5" cy="6357.5" r="58.5"/>
<circle class="st3" cx="267" cy="6837" r="50"/>
<circle class="st3" cx="267" cy="6837" r="50"/>
<circle class="st1" cx="174.5" cy="6737.5" r="37.5"/>
<circle class="st3" cx="382.5" cy="6670.5" r="34.5"/>
<circle class="st1" cx="360" cy="6811" r="36"/>
<circle class="st2" cx="792.5" cy="6766.5" r="68"/>
<circle class="st3" cx="774.5" cy="6911.5" r="50"/>
<circle class="st1" cx="645" cy="6701" r="30.5"/>
<circle class="st3" cx="937" cy="6774" r="18.5"/>
<circle class="st1" cx="734.5" cy="6839.5" r="58.5"/>
<circle class="st3" cx="1684" cy="6803" r="18.5"/>
<circle class="st2" cx="1539.5" cy="6795.5" r="68"/>
<circle class="st3" cx="1684" cy="6803" r="18.5"/>
<circle class="st1" cx="1481.5" cy="6868.5" r="58.5"/>
<circle class="st3" cx="1295" cy="6737" r="34.5"/>
<circle class="st1" cx="1272.5" cy="6877.5" r="36"/>
<circle class="st1" cx="1667.5" cy="7193.5" r="37.5"/>
<circle class="st3" cx="1875.5" cy="7126.5" r="34.5"/>
<circle class="st3" cx="667.5" cy="7152.5" r="34.5"/>
<circle class="st1" cx="256.8" cy="7158.3" r="40.1"/>
<circle class="st2" cx="308.9" cy="7238.4" r="20.6"/>
<circle class="st2" cx="185.9" cy="7185.8" r="18.3"/>
<circle class="st1" cx="165" cy="7271.9" r="33.5"/>
<circle class="st2" cx="310.9" cy="7336.6" r="19.2"/>
<circle class="st3" cx="491.5" cy="7203" r="35.5"/>
<circle class="st2" cx="466.9" cy="7588.2" r="38.9"/>
<circle class="st3" cx="456.6" cy="7671.1" r="28.6"/>
<circle class="st1" cx="382.5" cy="7550.7" r="17.5"/>
<circle class="st1" cx="433.7" cy="7629.9" r="33.5"/>
<circle class="st3" cx="329.3" cy="7904.4" r="28.6"/>
<circle class="st3" cx="329.3" cy="7904.4" r="28.6"/>
<circle class="st1" cx="276.3" cy="7847.4" r="21.5"/>
<circle class="st3" cx="395.4" cy="7809.1" r="19.7"/>
<circle class="st1" cx="382.5" cy="7889.5" r="20.6"/>
<circle class="st2" cx="807.9" cy="7511.1" r="47.5"/>
<circle class="st3" cx="795.3" cy="7612.4" r="34.9"/>
<circle class="st1" cx="1048.4" cy="7549.1" r="40.9"/>
<circle class="st2" cx="1317.6" cy="7681.2" r="47.5"/>
<circle class="st1" cx="1192.9" cy="7912.1" r="40.9"/>
<circle class="st1" cx="981.2" cy="7485.9" r="26.2"/>
<circle class="st3" cx="1126.5" cy="7439.1" r="24.1"/>
<circle class="st1" cx="1110.8" cy="7537.3" r="25.2"/>
<circle class="st1" cx="640.2" cy="7816.4" r="26.2"/>
</svg>
