<?xml version="1.0" encoding="utf-8"?>
<!-- Generator: Adobe Illustrator 22.0.0, SVG Export Plug-In . SVG Version: 6.00 Build 0)  -->
<svg version="1.1" id="Layer_1" xmlns="http://www.w3.org/2000/svg" xmlns:xlink="http://www.w3.org/1999/xlink" x="0px" y="0px"
	 viewBox="0 0 24 24" style="enable-background:new 0 0 24 24;" xml:space="preserve">
<style type="text/css">
	.st0{fill:#858488;}
</style>
<path class="st0" d="M23.1,1h-1.6L9,12.8c0,0-4.3-3.5-3.5-1.2S7,15.5,7,15.5c-0.8,2.4-3.1,3.1-3.1,3.1s2.4,0,0,0s-2.4,3.1-2.4,3.1
	L2.7,23c0,0,3.1,0,3.1-2.4s0,0,0,0s0.8-2.4,3.1-3.1c0,0,1.6,0.8,3.9,1.6c2.4,0.8-1.2-3.5-1.2-3.5L23.5,3V1.4L23.1,1z"/>
</svg>
