<?xml version="1.0" encoding="utf-8"?>
<!-- Generator: Adobe Illustrator 22.0.0, SVG Export Plug-In . SVG Version: 6.00 Build 0)  -->
<svg version="1.1" id="Layer_1" xmlns="http://www.w3.org/2000/svg" xmlns:xlink="http://www.w3.org/1999/xlink" x="0px" y="0px"
	 viewBox="0 0 24 24" style="enable-background:new 0 0 24 24;" xml:space="preserve">
<style type="text/css">
	.st0{fill:#858488;stroke:#FFFFFF;stroke-width:0.1;stroke-miterlimit:10;}
</style>
<path class="st0" d="M11.8,4.3c0,0,4.8-2.1,10.9-1.4c0,0,0.7,0.7,0,1.4h-3.4c0,0-0.7,0.7,0,1.4h3.4c0,0,0.7,0.7,0,1.4h-3.4
	c0,0-0.7,0.7,0,1.4h3.4c0,0,0.7,0.7,0,1.4h-3.4c0,0,0,3.4-2.7,5.5c0,0-6.2,4.8-8.2,4.8H2.9c0,0-5.5-1.4,0-3.4c0,0,6.8-2.7,8.9-6.2
	C11.8,10.4,13.1,7.7,11.8,4.3z"/>
</svg>
